<svg width="20" height="16" viewBox="0 0 20 16" fill="none" xmlns="http://www.w3.org/2000/svg">
<path d="M12.3825 8.28516C12.3825 9.44587 12.1397 10.481 11.6542 11.3906C11.1687 12.2946 10.4768 13.0006 9.57833 13.5084C8.6799 14.0218 7.65032 14.2785 6.48961 14.2785C5.65813 14.2785 4.86293 14.1166 4.104 13.793C3.34508 13.4693 2.69217 13.034 2.1453 12.4872C1.59842 11.9403 1.16316 11.2874 0.839495 10.5285C0.515834 9.76953 0.354004 8.97433 0.354004 8.14286C0.354004 7.31138 0.515834 6.51618 0.839495 5.75725C1.16316 4.99833 1.59842 4.34542 2.1453 3.79855C2.69217 3.25167 3.34508 2.81641 4.104 2.49275C4.86293 2.16908 5.65813 2.00725 6.48961 2.00725C8.08559 2.00725 9.45557 2.54297 10.5995 3.6144L8.9338 5.21317C8.2809 4.58259 7.46617 4.2673 6.48961 4.2673C5.80322 4.2673 5.16706 4.44029 4.58112 4.78627C4.00077 5.13225 3.54039 5.60379 3.19999 6.20089C2.85958 6.79241 2.68938 7.43973 2.68938 8.14286C2.68938 8.84598 2.85958 9.49609 3.19999 10.0932C3.54039 10.6847 4.00077 11.1535 4.58112 11.4994C5.16706 11.8454 5.80322 12.0184 6.48961 12.0184C6.95278 12.0184 7.37688 11.9542 7.76193 11.8259C8.15255 11.6975 8.47342 11.5385 8.72454 11.3488C8.97566 11.1535 9.19329 10.933 9.37744 10.6875C9.56717 10.442 9.70389 10.2104 9.7876 9.99275C9.87688 9.77511 9.93827 9.56864 9.97175 9.37333H6.48961V7.26395H12.282C12.349 7.61551 12.3825 7.95591 12.3825 8.28516ZM19.6397 7.26395V9.02176H17.8903V10.7712H16.1325V9.02176H14.383V7.26395H16.1325V5.51451H17.8903V7.26395H19.6397Z" fill="#DE4B39"/>
</svg>
