<svg width="50" height="54" viewBox="0 0 50 54" fill="none" xmlns="http://www.w3.org/2000/svg">
<path d="M0.609375 25.375C0.609375 9.33333 0.682292 1.23958 0.828125 1.09375C0.973958 0.947917 4.65625 0.875 11.875 0.875H22.7031L30.0312 8.09375L37.25 15.4219V17.7188V20.0156L38.4531 20.2344C39.6927 20.3073 40.9323 20.9271 42.1719 22.0938C42.974 22.8229 43.7031 23.224 44.3594 23.2969C45.9635 23.5156 47.2031 24.4271 48.0781 26.0312C48.5885 26.9062 48.6615 28.5469 48.2969 30.9531C48.151 31.5365 48.224 32.3021 48.5156 33.25C49.026 35.3646 48.4792 37.1146 46.875 38.5L46 39.2656V46.1562C46 48.0521 46 49.4375 46 50.3125C46 51.2604 45.9635 51.9896 45.8906 52.5C45.8177 53.0104 45.7083 53.3021 45.5625 53.375C45.4896 53.5208 45.3438 53.5938 45.125 53.5938C44.9792 53.5938 43.776 52.8646 41.5156 51.4062L38.125 49.1094L34.8438 51.4062C32.5833 52.8646 31.3438 53.5938 31.125 53.5938C30.5417 53.5938 30.25 52.901 30.25 51.5156V49.875H15.7031C5.93229 49.875 0.973958 49.8021 0.828125 49.6562C0.682292 49.5104 0.609375 41.4167 0.609375 25.375ZM2.25 25.375V48.125H16.25H30.25V43.6406V39.1562L29.4844 38.5C27.8802 37.0417 27.3333 35.3646 27.8438 33.4688C28.2083 32.0833 28.2083 30.7708 27.8438 29.5312C27.6979 28.875 27.6979 28.1094 27.8438 27.2344C27.9896 26.4323 28.4635 25.6302 29.2656 24.8281C29.9948 24.099 30.8333 23.5885 31.7812 23.2969C32.6562 23.0781 33.4948 22.6406 34.2969 21.9844L35.5 20.8906V18.8125V16.625H28.8281C24.3073 16.625 21.974 16.5521 21.8281 16.4062C21.6094 16.1875 21.5 13.8542 21.5 9.40625V2.625H11.875H2.25V25.375ZM23.25 9.40625V14.875H28.8281H34.2969L28.8281 9.40625L23.3594 3.9375C23.2865 5.54167 23.25 7.36458 23.25 9.40625ZM36.7031 22.3125C36.2656 22.5312 35.7552 22.9323 35.1719 23.5156C34.4427 24.2448 33.349 24.7917 31.8906 25.1562C30.5052 25.5938 29.7031 26.4323 29.4844 27.6719C29.4115 28.1094 29.4844 28.8021 29.7031 29.75C30.0677 30.7708 30.0312 32.0833 29.5938 33.6875C29.4479 34.4896 29.4844 35.1823 29.7031 35.7656C30.2135 37.0052 31.2708 37.7708 32.875 38.0625C33.6042 38.2083 34.3698 38.6823 35.1719 39.4844C36.2656 40.5781 37.2135 41.125 38.0156 41.125C38.9635 41.125 39.9115 40.6875 40.8594 39.8125C41.8073 38.9375 42.974 38.3177 44.3594 37.9531C46.6927 37.224 47.4948 35.7656 46.7656 33.5781C46.474 32.776 46.474 31.1354 46.7656 28.6562C46.8385 27.9271 46.7292 27.2708 46.4375 26.6875C45.7812 25.5208 44.8333 24.9375 43.5938 24.9375C43.3021 24.9375 42.8281 24.7552 42.1719 24.3906C41.5156 23.9531 41.0781 23.5885 40.8594 23.2969C40.2031 22.349 39.2917 21.875 38.125 21.875C37.7604 21.875 37.2865 22.0208 36.7031 22.3125ZM33.9688 30.1875C34.4062 28.7292 35.3177 27.7812 36.7031 27.3438C38.0885 26.9062 39.3281 27.0521 40.4219 27.7812C40.9323 28 41.3698 28.4375 41.7344 29.0938C42.1719 29.6771 42.3906 30.4792 42.3906 31.5C42.3906 32.5208 42.1719 33.3229 41.7344 33.9062C40.8594 35.1458 39.6562 35.7656 38.125 35.7656C37.1771 35.7656 36.4115 35.5469 35.8281 35.1094C34.0052 33.8698 33.3854 32.2292 33.9688 30.1875ZM39.9844 29.75C39.1094 28.875 38.1615 28.6562 37.1406 29.0938C36.1198 29.5312 35.6094 30.3333 35.6094 31.5C35.6094 32.1562 35.8646 32.7396 36.375 33.25C36.8854 33.7604 37.4688 34.0156 38.125 34.0156C38.8542 34.0156 39.474 33.7604 39.9844 33.25C40.4219 32.8125 40.6406 32.2292 40.6406 31.5C40.6406 30.7708 40.4219 30.1875 39.9844 29.75ZM32 45.3906L32.1094 50.9688C33.0573 50.3854 34.0417 49.7656 35.0625 49.1094C37.0312 47.7969 38.125 47.2135 38.3438 47.3594C38.5625 47.3594 39.5833 47.9792 41.4062 49.2188C43.0833 50.3854 43.9948 50.9688 44.1406 50.9688C44.2135 50.9688 44.25 49.1094 44.25 45.3906V39.8125L43.8125 39.9219C43.3021 40.1406 42.7188 40.5417 42.0625 41.125C40.6771 42.2917 39.3646 42.875 38.125 42.875C36.6667 42.875 35.3177 42.2188 34.0781 40.9062C33.349 40.1771 32.8385 39.8125 32.5469 39.8125H32V45.3906Z" fill="#F53B30"/>
</svg>
