<svg width="71" height="62" viewBox="0 0 71 62" fill="none" xmlns="http://www.w3.org/2000/svg">
<path d="M0.78125 1.17188C0.96875 0.890625 4.57812 0.75 11.6094 0.75C18.6406 0.65625 22.2969 0.75 22.5781 1.03125C22.8594 1.3125 23 2.0625 23 3.28125V5.25H38.3281C48.6406 5.25 53.8906 5.34375 54.0781 5.53125C54.3594 5.8125 54.5 7.3125 54.5 10.0312V14.25H57.4531C59.5156 14.25 60.6406 14.3438 60.8281 14.5312C61.1094 14.8125 61.25 16.2656 61.25 18.8906V22.8281L65.75 27.3281C68.75 30.1406 70.25 31.7812 70.25 32.25C70.25 32.5312 66.2656 36.6562 58.2969 44.625L46.3438 56.4375L39.7344 58.9688C35.3281 60.6562 32.9844 61.5 32.7031 61.5C32.4219 61.5 32.1875 61.3125 32 60.9375C31.7188 60.4688 32.0938 58.9688 33.125 56.4375L34.6719 52.5H19.0625C8.46875 52.4062 2.9375 52.1719 2.46875 51.7969C2.09375 51.5156 1.67188 51.0469 1.20312 50.3906C0.828125 49.9219 0.59375 41.6719 0.5 25.6406C0.5 9.51562 0.59375 1.35937 0.78125 1.17188ZM2.75 25.9219V48.8438L3.45312 49.5469C3.92188 50.0156 4.8125 50.25 6.125 50.25C7.4375 50.25 8.32812 50.0156 8.79688 49.5469L9.5 48.8438V31.8281C9.5 20.4844 9.59375 14.7187 9.78125 14.5312C9.96875 14.3438 17.0938 14.25 31.1562 14.25H52.25V10.875V7.5H36.7812C26.4688 7.5 21.2188 7.40625 21.0312 7.21875C20.8438 7.03125 20.75 6.28125 20.75 4.96875V3H11.75H2.75V25.9219ZM11.75 32.6719C11.75 43.3594 11.6562 48.9844 11.4688 49.5469L11.1875 50.25H23.4219L35.6562 50.1094L36.2188 48.5625C36.6875 47.4375 40.5781 43.2656 47.8906 36.0469L59 25.0781V20.8594V16.5H35.375H11.75V32.6719ZM50.2812 36.8906L39.4531 47.7188L42.5469 50.8125L45.6406 54.0469L56.6094 43.0781L67.5781 32.25L64.4844 29.1562C62.4219 27.0938 61.3438 26.0625 61.25 26.0625C61.1562 26.0625 57.5 29.6719 50.2812 36.8906ZM36.5 53.9062L34.9531 58.2656L37.0625 57.5625C38.4688 57.0938 39.875 56.5781 41.2812 56.0156L43.5312 55.1719C42.6875 54.2344 41.7969 53.2969 40.8594 52.3594L38.1875 49.6875L36.5 53.9062Z" fill="#F53B30"/>
</svg>
