<svg width="55" height="46" viewBox="0 0 55 46" fill="none" xmlns="http://www.w3.org/2000/svg">
<path d="M32.7656 1.34375C33.2031 1.19792 34.2969 1.125 36.0469 1.125H38.6719L46.6562 9.10938C52.0521 14.5052 54.75 17.3125 54.75 17.5312C54.75 17.75 53.9115 18.6979 52.2344 20.375L49.6094 23L50.1562 23.5469C51.0312 24.4219 51.4688 25.4427 51.4688 26.6094C51.4688 27.4844 51.1406 28.3594 50.4844 29.2344C49.8281 30.1094 49.099 30.6198 48.2969 30.7656L47.5312 30.875L47.6406 32.4062C47.7135 33.4271 47.6042 34.2292 47.3125 34.8125C46.5104 36.3438 45.3073 37.1094 43.7031 37.1094C42.8281 37.1094 42.2448 37.0365 41.9531 36.8906C41.5885 36.8177 41.3698 37 41.2969 37.4375C40.7865 39.625 39.3281 40.7188 36.9219 40.7188H35.6094L35.2812 41.7031C34.9167 43.1615 33.9688 44.1094 32.4375 44.5469C30.9792 44.9844 29.6667 44.7292 28.5 43.7812L27.7344 43.2344L26.9688 43.7812C26.0938 44.5104 25.1823 44.875 24.2344 44.875C23.3594 44.875 22.4844 44.5833 21.6094 44C20.8073 43.3438 20.2969 42.6146 20.0781 41.8125L19.8594 40.8281H18.5469C16.1406 40.6823 14.6823 39.6615 14.1719 37.7656C14.099 37.2552 13.9167 37 13.625 37C13.2604 37.1458 12.6771 37.1823 11.875 37.1094C11.0729 37.0365 10.526 36.9271 10.2344 36.7812C9.28646 36.2708 8.55729 35.5052 8.04688 34.4844C7.60938 33.3906 7.57292 32.3698 7.9375 31.4219C8.08333 31.0573 8.01042 30.875 7.71875 30.875C7.42708 30.875 6.98958 30.7292 6.40625 30.4375C5.09375 29.7083 4.32812 28.651 4.10938 27.2656C3.89062 25.8802 4.29167 24.6406 5.3125 23.5469L5.85938 23L3.125 20.2656C1.375 18.5156 0.5 17.5312 0.5 17.3125C0.5 17.0938 2.90625 14.5781 7.71875 9.76562C12.6042 4.88021 15.1562 2.4375 15.375 2.4375C15.5938 2.4375 16.0312 2.76562 16.6875 3.42188C17.7812 4.36979 18.8385 4.73438 19.8594 4.51562C20.224 4.36979 20.8438 3.93229 21.7188 3.20312C23.9792 1.30729 26.276 1.08854 28.6094 2.54688C29.1927 2.91146 29.5938 2.98438 29.8125 2.76562C30.5417 2.18229 31.526 1.70833 32.7656 1.34375ZM32.5469 3.20312C31.6719 3.49479 30.0677 4.77083 27.7344 7.03125C26.4219 8.27083 25.5833 9.21875 25.2188 9.875C24.9271 10.4583 24.9271 11.0417 25.2188 11.625C25.7292 12.7917 26.4948 13.375 27.5156 13.375C28.3177 13.375 29.2656 12.8646 30.3594 11.8438C32.2552 10.0208 34.1875 9.47396 36.1562 10.2031C36.8854 10.4948 39.1094 12.5 42.8281 16.2188L48.4062 21.7969L50.5938 19.6094L52.6719 17.5312L45.3438 10.2031L38.0156 2.875H35.7188C34.1146 2.875 33.0573 2.98438 32.5469 3.20312ZM24.0156 3.64062C23.9427 3.71354 23.4323 4.11458 22.4844 4.84375C21.3906 5.86458 20.2604 6.375 19.0938 6.375C18 6.375 16.9062 5.90104 15.8125 4.95312L15.375 4.51562L8.92188 10.9688L2.57812 17.3125L4.76562 19.5L7.0625 21.7969L7.71875 21.1406C9.32292 19.5365 11 19.2083 12.75 20.1562C14.2083 20.9583 15.0104 22.0885 15.1562 23.5469C15.2292 24.1302 15.2656 24.4948 15.2656 24.6406C15.3385 24.7135 15.5573 24.75 15.9219 24.75C16.4323 24.75 17.0521 24.9688 17.7812 25.4062C18.5104 25.7708 19.0208 26.1719 19.3125 26.6094C19.6042 26.974 19.8229 27.4844 19.9688 28.1406C20.1875 28.7969 20.224 29.2344 20.0781 29.4531C20.0052 29.526 20.0052 29.599 20.0781 29.6719C20.224 29.6719 20.5521 29.7083 21.0625 29.7812C22.0833 29.8542 22.9219 30.2917 23.5781 31.0938C24.3073 31.8229 24.7448 32.7344 24.8906 33.8281C25.0365 34.5573 25.1458 34.9219 25.2188 34.9219C25.6562 34.9219 26.0573 34.9583 26.4219 35.0312C27.5156 35.25 28.3906 35.9062 29.0469 37C29.7031 38.0938 29.8854 39.1875 29.5938 40.2812C29.4479 41.0104 29.3021 41.4479 29.1562 41.5938C29.0104 41.8125 29.0469 42.0677 29.2656 42.3594C29.5573 42.5781 29.9219 42.7604 30.3594 42.9062C30.8698 43.0521 31.3073 43.0885 31.6719 43.0156C33.0573 42.724 33.75 41.8125 33.75 40.2812C33.75 39.6979 33.349 38.9688 32.5469 38.0938C31.526 37 31.1979 36.2708 31.5625 35.9062C32 35.4688 32.9479 35.9427 34.4062 37.3281C35.5729 38.4219 36.4844 38.9688 37.1406 38.9688C37.7969 38.9688 38.3802 38.7135 38.8906 38.2031C39.401 37.6927 39.6562 37.1094 39.6562 36.4531C39.6562 35.9427 39.5469 35.5417 39.3281 35.25C39.1094 34.8854 38.3802 34.0833 37.1406 32.8438C35.4635 31.1667 34.625 30.1823 34.625 29.8906C34.625 29.2344 34.9167 28.9062 35.5 28.9062C35.6458 28.9062 36.8125 30 39 32.1875L42.2812 35.3594H43.375C44.1771 35.3594 44.7969 35.1042 45.2344 34.5938C46.1094 33.5729 46.2552 32.5885 45.6719 31.6406C45.4531 31.2031 44.3229 30.0365 42.2812 28.1406C40.3125 26.3177 39.2552 25.151 39.1094 24.6406C38.9635 23.8385 39.2188 23.4375 39.875 23.4375C40.0938 23.4375 41.151 24.3854 43.0469 26.2812L45.8906 29.125H46.9844C48.224 29.125 49.026 28.6875 49.3906 27.8125C49.8281 27.0104 49.8281 26.2083 49.3906 25.4062C49.1719 24.9688 46.9479 22.6719 42.7188 18.5156C38.5625 14.3594 36.2656 12.1719 35.8281 11.9531C34.5885 11.2969 33.0573 11.8073 31.2344 13.4844C29.9219 14.651 28.5729 15.1979 27.1875 15.125C25.875 15.0521 24.8177 14.4323 24.0156 13.2656C23.2865 12.099 23.1042 10.8958 23.4688 9.65625C23.6146 9.07292 24.4167 8.05208 25.875 6.59375C26.4583 6.01042 26.8958 5.57292 27.1875 5.28125C27.4792 4.91667 27.625 4.625 27.625 4.40625C27.6979 4.11458 27.625 3.93229 27.4062 3.85938C27.2604 3.78646 26.9688 3.67708 26.5312 3.53125C25.5104 3.23958 24.6719 3.27604 24.0156 3.64062ZM9.57812 21.9062C9.06771 22.2708 8.33854 22.9635 7.39062 23.9844C6.44271 25.0052 5.93229 25.6615 5.85938 25.9531C5.78646 26.2448 5.82292 26.7188 5.96875 27.375C6.33333 28.5417 7.20833 29.125 8.59375 29.125C9.17708 29.125 10.125 28.4688 11.4375 27.1562C11.5833 27.0104 11.7292 26.8646 11.875 26.7188C12.6042 25.9896 13.0417 25.5156 13.1875 25.2969C13.3333 25.0781 13.4062 24.7135 13.4062 24.2031C13.4062 22.9635 12.9688 22.1615 12.0938 21.7969C11.1458 21.3594 10.3073 21.3958 9.57812 21.9062ZM14.5 26.8281C13.9896 27.1927 13.1146 27.9948 11.875 29.2344C10.6354 30.474 9.94271 31.2396 9.79688 31.5312C9.28646 32.4792 9.35938 33.4271 10.0156 34.375C10.7448 35.25 11.6198 35.5781 12.6406 35.3594C13.0781 35.2135 14.0625 34.4115 15.5938 32.9531C17.1979 31.4219 18.0729 30.401 18.2188 29.8906C18.5833 28.9427 18.3281 28.0312 17.4531 27.1562C17.0885 26.7917 16.5781 26.5729 15.9219 26.5C15.3385 26.4271 14.8646 26.5365 14.5 26.8281ZM18.9844 32.1875C18.3281 32.625 17.6354 33.2448 16.9062 34.0469C16.1771 34.849 15.776 35.4323 15.7031 35.7969C15.4844 36.7448 15.7396 37.5833 16.4688 38.3125C17.6354 39.4792 19.276 39.0417 21.3906 37C22.3385 36.0521 22.9219 35.3229 23.1406 34.8125C23.3594 34.3021 23.2865 33.7188 22.9219 33.0625C22.5573 32.2604 21.974 31.7865 21.1719 31.6406C20.4427 31.4948 19.7135 31.6771 18.9844 32.1875ZM24.6719 36.7812C24.3073 36.9271 23.7969 37.3281 23.1406 37.9844C22.4844 38.5677 22.0469 39.1146 21.8281 39.625C21.3906 40.6458 21.6094 41.5573 22.4844 42.3594C23.3594 43.1615 24.3073 43.3073 25.3281 42.7969C25.7656 42.5781 26.276 42.1042 26.8594 41.375C27.4427 40.6458 27.8073 40.0625 27.9531 39.625C28.099 38.5312 27.7344 37.6927 26.8594 37.1094C26.2031 36.6719 25.474 36.5625 24.6719 36.7812Z" fill="#F53B30"/>
</svg>
