<svg width="55" height="34" viewBox="0 0 55 34" fill="none" xmlns="http://www.w3.org/2000/svg">
<path d="M0.609375 5.625C0.609375 2.41667 0.682292 0.739583 0.828125 0.59375C0.973958 0.447917 9.90625 0.375 27.625 0.375C45.4167 0.375 54.3854 0.447917 54.5312 0.59375C54.6771 0.739583 54.75 2.41667 54.75 5.625C54.75 8.83333 54.6771 10.5104 54.5312 10.6562C54.3854 10.8021 54.0938 10.875 53.6562 10.875C52.4896 10.875 51.3594 11.3125 50.2656 12.1875C49.1719 12.9896 48.4427 13.9375 48.0781 15.0312C47.6406 16.3438 47.6406 17.6562 48.0781 18.9688C48.4427 20.0625 49.1719 21.0469 50.2656 21.9219C51.3594 22.724 52.4896 23.125 53.6562 23.125C54.0938 23.125 54.3854 23.1979 54.5312 23.3438C54.6771 23.4896 54.75 25.1667 54.75 28.375C54.75 31.5833 54.6771 33.2604 54.5312 33.4062C54.3854 33.5521 45.4167 33.625 27.625 33.625C9.90625 33.625 0.973958 33.5521 0.828125 33.4062C0.682292 33.2604 0.609375 31.5833 0.609375 28.375C0.609375 25.1667 0.682292 23.4896 0.828125 23.3438C0.973958 23.1979 1.22917 23.125 1.59375 23.125C2.10417 23.125 2.6875 23.0156 3.34375 22.7969C4.51042 22.4323 5.49479 21.7031 6.29688 20.6094C7.09896 19.4427 7.5 18.2396 7.5 17C7.5 15.3958 6.88021 13.974 5.64062 12.7344C4.47396 11.4948 3.125 10.875 1.59375 10.875C1.22917 10.875 0.973958 10.8021 0.828125 10.6562C0.682292 10.5104 0.609375 8.83333 0.609375 5.625ZM2.25 5.625V9.125L3.45312 9.45312C5.85938 10.1823 7.57292 11.6406 8.59375 13.8281C8.95833 14.5573 9.14062 15.6146 9.14062 17C9.14062 18.3854 8.95833 19.4427 8.59375 20.1719C7.57292 22.3594 5.85938 23.8177 3.45312 24.5469L2.25 24.875V28.375V31.875H27.625H53V28.375V24.875L52.125 24.6562C49.7188 24 47.9323 22.5052 46.7656 20.1719C46.3281 19.2969 46.1094 18.2396 46.1094 17C46.1094 15.7604 46.3281 14.7031 46.7656 13.8281C47.9323 11.4948 49.7188 10 52.125 9.34375L53 9.125V5.625V2.125H27.625H2.25V5.625ZM27.1875 6.0625C26.8958 6.20833 26.75 6.60938 26.75 7.26562C26.75 7.70312 26.7135 7.99479 26.6406 8.14062C26.5677 8.28646 26.276 8.39583 25.7656 8.46875C25.1094 8.6875 24.4896 9.08854 23.9062 9.67188C22.8854 10.6927 22.4115 11.8594 22.4844 13.1719C22.5573 14.4844 23.1771 15.5781 24.3438 16.4531C25.0729 17.0365 25.9115 17.4375 26.8594 17.6562C27.4427 17.8021 28.2812 18.0938 29.375 18.5312C30.9062 19.2604 31.4531 20.3542 31.0156 21.8125C30.5781 23.2708 29.4844 24 27.7344 24C25.6927 24 24.4896 22.9792 24.125 20.9375C24.0521 20.5 23.8698 20.2083 23.5781 20.0625C23.3594 19.8438 23.1042 19.8438 22.8125 20.0625C22.5938 20.2083 22.4844 20.5 22.4844 20.9375C22.4115 21.7396 22.7396 22.651 23.4688 23.6719C24.1979 24.6198 25.0365 25.2396 25.9844 25.5312C26.4948 25.6771 26.75 26.0781 26.75 26.7344C26.75 27.3177 26.8958 27.7188 27.1875 27.9375C27.5521 28.1562 27.8438 28.1562 28.0625 27.9375C28.3542 27.7188 28.5 27.3177 28.5 26.7344C28.5 26.2969 28.5365 26.0052 28.6094 25.8594C28.6823 25.7135 28.974 25.6042 29.4844 25.5312C30.2865 25.2396 30.9427 24.8385 31.4531 24.3281C32.474 23.3073 32.9479 22.1406 32.875 20.8281C32.8021 19.5156 32.1823 18.4219 31.0156 17.5469C30.4323 17.0365 29.4844 16.599 28.1719 16.2344C26.0573 15.651 24.8177 14.9583 24.4531 14.1562C23.9427 13.1354 24.0156 12.1875 24.6719 11.3125C25.3281 10.4375 26.276 10 27.5156 10C29.1198 10 30.25 10.7292 30.9062 12.1875C31.6354 13.5729 32.2188 13.8646 32.6562 13.0625C33.0208 12.4062 32.7656 11.5312 31.8906 10.4375C31.0156 9.27083 30.1042 8.57812 29.1562 8.35938C28.7188 8.28646 28.5 7.92188 28.5 7.26562C28.5 6.68229 28.3542 6.28125 28.0625 6.0625C27.6979 5.91667 27.4062 5.91667 27.1875 6.0625Z" fill="#F53B30"/>
</svg>
