<svg width="16" height="16" viewBox="0 0 16 16" fill="none" xmlns="http://www.w3.org/2000/svg">
<g id="search_icon">
<path id="Vector" d="M11.6875 9.75C12.3125 8.76667 12.6792 7.6 12.6792 6.34583C12.6792 2.84167 9.84167 0 6.34167 0C2.8375 0 0 2.84167 0 6.34583C0 9.85 2.8375 12.6917 6.3375 12.6917C7.60833 12.6917 8.79167 12.3167 9.78333 11.675L10.0708 11.475L14.5958 16L16 14.5708L11.4792 10.0458L11.6875 9.75ZM9.89167 2.8C10.8375 3.74583 11.3583 5.00417 11.3583 6.34167C11.3583 7.67917 10.8375 8.9375 9.89167 9.88333C8.94583 10.8292 7.6875 11.35 6.35 11.35C5.0125 11.35 3.75417 10.8292 2.80833 9.88333C1.8625 8.9375 1.34167 7.67917 1.34167 6.34167C1.34167 5.00417 1.8625 3.74583 2.80833 2.8C3.75417 1.85417 5.0125 1.33333 6.35 1.33333C7.6875 1.33333 8.94583 1.85417 9.89167 2.8Z" fill="white"/>
</g>
</svg>
