<svg width="14" height="16" viewBox="0 0 14 16" fill="none" xmlns="http://www.w3.org/2000/svg">
<path d="M13.5949 4.05804C13.2211 4.60491 12.769 5.07087 12.2389 5.45591C12.2445 5.53404 12.2473 5.65123 12.2473 5.80748C12.2473 6.53292 12.1413 7.25837 11.9292 7.98382C11.7171 8.70368 11.3935 9.39565 10.9582 10.0597C10.5285 10.7238 10.0151 11.3125 9.41804 11.8259C8.82094 12.3337 8.10107 12.7411 7.25844 13.048C6.41581 13.3493 5.51458 13.5 4.55476 13.5C3.04248 13.5 1.65855 13.0954 0.402972 12.2863C0.598284 12.3086 0.815918 12.3198 1.05587 12.3198C2.31145 12.3198 3.43032 11.9347 4.41246 11.1646C3.82652 11.1535 3.30197 10.9749 2.8388 10.6289C2.37563 10.2773 2.05755 9.83091 1.88456 9.28962C2.06871 9.31752 2.23891 9.33147 2.39516 9.33147C2.63511 9.33147 2.87228 9.30078 3.10665 9.2394C2.48165 9.11105 1.96268 8.80134 1.54973 8.31027C1.14237 7.81362 0.938686 7.23884 0.938686 6.58594V6.55246C1.31815 6.76451 1.72552 6.87891 2.16078 6.89565C1.79248 6.65011 1.49951 6.32924 1.28188 5.93304C1.06424 5.53683 0.955427 5.10714 0.955427 4.64397C0.955427 4.1529 1.07819 3.6981 1.32373 3.27958C1.99895 4.11105 2.81927 4.7779 3.78467 5.28013C4.75565 5.77679 5.7936 6.05301 6.89851 6.10882C6.85386 5.89676 6.83154 5.69029 6.83154 5.4894C6.83154 4.74163 7.09382 4.10547 7.61837 3.58091C8.14851 3.05078 8.78746 2.78571 9.53523 2.78571C10.3165 2.78571 10.975 3.07031 11.5107 3.63951C12.1189 3.52232 12.6909 3.30469 13.2266 2.98661C13.0202 3.62835 12.624 4.125 12.038 4.47656C12.557 4.42076 13.076 4.28125 13.5949 4.05804Z" fill="#55ACEE"/>
</svg>
