<svg width="58" height="70" viewBox="0 0 58 70" fill="none" xmlns="http://www.w3.org/2000/svg">
<path d="M5.5 3.78125C5.5 1.71875 5.59375 0.59375 5.78125 0.40625C5.96875 0.21875 14.125 0.125 30.25 0.125C46.375 0.21875 54.6719 0.453125 55.1406 0.828125C55.7031 1.20313 56.1719 1.67188 56.5469 2.23438C56.9219 2.79688 57.1094 13.7188 57.1094 35C57.1094 56.2812 56.9219 67.2031 56.5469 67.7656C56.1719 68.3281 55.7031 68.7969 55.1406 69.1719C54.6719 69.5469 46.4219 69.7812 30.3906 69.875C14.2656 69.875 6.10938 69.7812 5.92188 69.5938C5.64062 69.3125 5.5 68.1875 5.5 66.2188V63.125H3.53125C2.21875 63.125 1.42188 62.9375 1.14062 62.5625C0.859375 62.1875 0.859375 61.8125 1.14062 61.4375C1.42188 61.0625 2.21875 60.875 3.53125 60.875H5.5V53V45.125H3.53125C2.21875 45.125 1.42188 44.9375 1.14062 44.5625C0.859375 44.1875 0.859375 43.8125 1.14062 43.4375C1.42188 43.0625 2.21875 42.875 3.53125 42.875H5.5V35V27.125H3.53125C2.21875 27.125 1.42188 26.9375 1.14062 26.5625C0.859375 26.1875 0.859375 25.8125 1.14062 25.4375C1.42188 25.0625 2.21875 24.875 3.53125 24.875H5.5V17V9.125H3.53125C2.21875 9.125 1.42188 8.9375 1.14062 8.5625C0.859375 8.1875 0.859375 7.8125 1.14062 7.4375C1.42188 7.0625 2.21875 6.875 3.53125 6.875H5.5V3.78125ZM7.75 4.625V6.875H8.59375C9.15625 6.875 9.53125 7.0625 9.71875 7.4375C10 7.8125 10 8.1875 9.71875 8.5625C9.53125 8.9375 9.15625 9.125 8.59375 9.125H7.75V17V24.875H8.59375C9.25 24.875 9.67188 25.0625 9.85938 25.4375C10.0469 25.8125 10 26.1875 9.71875 26.5625C9.53125 26.8438 9.15625 27.0312 8.59375 27.125H7.75V35V42.875H8.59375C9.15625 42.875 9.53125 43.0625 9.71875 43.4375C10 43.8125 10 44.1875 9.71875 44.5625C9.53125 44.9375 9.15625 45.125 8.59375 45.125H7.75V53V60.875H8.59375C9.15625 60.875 9.53125 61.0625 9.71875 61.4375C10 61.8125 10 62.1875 9.71875 62.5625C9.53125 62.9375 9.15625 63.125 8.59375 63.125H7.75V65.375V67.625H26.875H46V35V2.375H26.875H7.75V4.625ZM48.25 35V67.625H50.9219C52.7031 67.625 53.8281 67.3906 54.2969 66.9219L55 66.2188V35V3.78125L54.2969 3.07812C53.8281 2.60938 52.7031 2.375 50.9219 2.375H48.25V35ZM27.0156 20.7969C29.6406 19.9531 32.125 20.6562 34.4688 22.9062C35.5938 24.0312 36.2969 25.1094 36.5781 26.1406C36.9531 27.1719 37.0938 28.8594 37 31.2031C36.9062 34.2969 36.0625 36.7812 34.4688 38.6562C33.3438 39.9688 33.25 40.9531 34.1875 41.6094C34.4688 41.8906 35.3594 42.2188 36.8594 42.5938C38.1719 42.9688 39.2031 43.5312 39.9531 44.2812C40.7031 45.0312 41.1719 45.9688 41.3594 47.0938C41.6406 48.125 41.5938 48.875 41.2188 49.3438C41.0312 49.5312 37 49.625 29.125 49.625C21.3438 49.625 17.2656 49.4375 16.8906 49.0625C16.7969 48.875 16.7969 48.4062 16.8906 47.6562C17.2656 45.0312 18.9062 43.2969 21.8125 42.4531C24.4375 41.7031 25.1875 40.625 24.0625 39.2188C22.8438 37.7188 22.0469 36.3125 21.6719 35C21.3906 33.9688 21.25 32.5625 21.25 30.7812C21.25 28.9062 21.3906 27.4531 21.6719 26.4219C22.4219 23.7031 24.2031 21.8281 27.0156 20.7969ZM26.875 23.4688C25.75 24.0312 24.9531 24.7344 24.4844 25.5781C23.9219 26.4219 23.5938 27.875 23.5 29.9375C23.4062 33.3125 24.1094 35.8438 25.6094 37.5312C26.5469 38.5625 26.9688 39.5469 26.875 40.4844C26.7812 42.2656 25.75 43.4844 23.7812 44.1406C23.5 44.2344 23.0312 44.375 22.375 44.5625C21.8125 44.75 21.4375 44.8906 21.25 44.9844C19.9375 45.5469 19.2812 46.2969 19.2812 47.2344C19.2812 47.3281 22.5625 47.375 29.125 47.375C35.6875 47.375 38.9688 47.1875 38.9688 46.8125C38.9688 46.625 38.8281 46.3438 38.5469 45.9688L38.4062 45.8281C38.125 45.4531 37.2344 45.0312 35.7344 44.5625C34.4219 44.0938 33.3906 43.5781 32.6406 43.0156C31.8906 42.2656 31.4688 41.4219 31.375 40.4844C31.2812 39.5469 31.6562 38.6094 32.5 37.6719C34 35.8906 34.75 33.5 34.75 30.5C34.75 27.7812 34.1406 25.7656 32.9219 24.4531C31.1406 22.5781 29.125 22.25 26.875 23.4688Z" fill="#F53B30"/>
</svg>
