<svg width="52" height="71" viewBox="0 0 52 71" fill="none" xmlns="http://www.w3.org/2000/svg">
<path d="M23.6875 1.90625C29.125 1.0625 34.375 2.04688 39.4375 4.85938C40.8438 5.60937 42.4375 6.875 44.2188 8.65625C46 10.4375 47.2656 12.0312 48.0156 13.4375C50.3594 17.5625 51.3906 22.0625 51.1094 26.9375C50.5469 37.0625 45.1562 48.7344 34.9375 61.9531C30.625 67.4844 28.1875 70.25 27.625 70.25C27.1562 70.25 25.5156 68.6094 22.7031 65.3281C19.9844 62.0469 17.5938 58.8125 15.5312 55.625C5.3125 40.3438 1.89062 27.6875 5.26562 17.6562C6.29688 14.4687 8.21875 11.4688 11.0312 8.65625C14.6875 5 18.9062 2.75 23.6875 1.90625ZM23.2656 4.29688C18.0156 5.51563 13.75 8.23438 10.4688 12.4531C7.28125 16.5781 5.875 21.3125 6.25 26.6562C6.8125 34.7188 10.75 44.2344 18.0625 55.2031C20.9688 59.5156 23.8281 63.2656 26.6406 66.4531L27.625 67.4375L28.4688 66.4531C35.7812 58.1094 41.2188 49.8594 44.7812 41.7031C47.4062 35.7031 48.7188 30.2656 48.7188 25.3906C48.7188 21.7344 48.0625 18.5469 46.75 15.8281C45.4375 13.1094 43.5625 10.7656 41.125 8.79688C38.6875 6.73437 36.0156 5.32812 33.1094 4.57812C29.8281 3.64062 26.5469 3.54688 23.2656 4.29688ZM24.9531 15.5469C27.6719 14.7031 30.2969 15.0781 32.8281 16.6719C34.6094 17.7969 35.9219 19.2969 36.7656 21.1719C37.3281 22.2969 37.6094 23.6563 37.6094 25.25C37.6094 26.8437 37.3281 28.2031 36.7656 29.3281C34.9844 33.2656 31.9375 35.2344 27.625 35.2344C23.3125 35.2344 20.2188 33.2656 18.3438 29.3281C17.875 28.3906 17.6406 27.0313 17.6406 25.25C17.6406 23.4687 17.875 22.1094 18.3438 21.1719C19.5625 18.4531 21.7656 16.5781 24.9531 15.5469ZM24.9531 17.7969C24.0156 18.0781 23.0312 18.7344 22 19.7656C21.0625 20.7031 20.4531 21.6875 20.1719 22.7188C19.1406 25.8125 19.75 28.4844 22 30.7344C24.4375 33.0781 27.1562 33.6875 30.1562 32.5625C33.25 31.4375 34.9844 29.2344 35.3594 25.9531C35.5469 23.7031 34.8438 21.6875 33.25 19.9062C31.6562 18.125 29.7344 17.2812 27.4844 17.375C26.4531 17.375 25.6094 17.5156 24.9531 17.7969Z" fill="#F53B30"/>
</svg>
