<svg width="70" height="70" viewBox="0 0 70 70" fill="none" xmlns="http://www.w3.org/2000/svg">
<path d="M9 11.5156C9 4.29688 9.09375 0.59375 9.28125 0.40625C9.46875 0.21875 18 0.125 34.875 0.125C51.75 0.125 60.2812 0.21875 60.4688 0.40625C60.6562 0.59375 60.75 4.29688 60.75 11.5156V22.2031L65.25 26.1406L69.75 29.9375V49.625C69.75 62.75 69.6562 69.4062 69.4688 69.5938C69.2812 69.7812 57.75 69.875 34.875 69.875C12 69.875 0.46875 69.7812 0.28125 69.5938C0.09375 69.4062 0 62.75 0 49.625V29.9375L4.5 26.1406L9 22.2031V11.5156ZM11.25 19.25V36.2656L15.0469 38.9375C17.5781 40.625 19.5938 42.0312 21.0938 43.1562L23.3438 44.5625L24.6094 43.5781C28.3594 40.8594 33.0938 40.0156 38.8125 41.0469C41.25 41.4219 43.3594 42.2656 45.1406 43.5781L46.4062 44.5625L48.6562 43.1562C50.1562 42.0312 52.1719 40.625 54.7031 38.9375L58.5 36.2656V19.25V2.375H34.875H11.25V19.25ZM18.2812 11.6562C18.4688 11.4688 20.6719 11.375 24.8906 11.375C28.9219 11.375 31.0781 11.5625 31.3594 11.9375C31.6406 12.3125 31.6406 12.6875 31.3594 13.0625C31.0781 13.4375 28.9219 13.625 24.8906 13.625C20.7656 13.625 18.6094 13.5312 18.4219 13.3438C17.7656 12.7812 17.7188 12.2188 18.2812 11.6562ZM25.0312 20.6562C25.2188 20.4688 29.6719 20.375 38.3906 20.375C46.9219 20.375 51.3281 20.5625 51.6094 20.9375C51.8906 21.3125 51.8906 21.6875 51.6094 22.0625C51.3281 22.4375 46.9219 22.625 38.3906 22.625C29.7656 22.625 25.3594 22.5312 25.1719 22.3438C24.5156 21.7812 24.4688 21.2188 25.0312 20.6562ZM60.75 29.7969C60.75 32.8906 60.7969 34.4375 60.8906 34.4375C60.9844 34.4375 61.9688 33.7812 63.8438 32.4688C65.7188 31.1562 66.6562 30.4531 66.6562 30.3594C65.8125 29.5156 64.8281 28.625 63.7031 27.6875L60.75 25.1562V29.7969ZM6.04688 27.6875C5.85938 27.875 5.625 28.1094 5.34375 28.3906C5.15625 28.5781 4.96875 28.7656 4.78125 28.9531C4.59375 29.0469 4.40625 29.1875 4.21875 29.375C4.03125 29.4688 3.89062 29.5625 3.79688 29.6562C3.70312 29.75 3.60938 29.8438 3.51562 29.9375L3.375 30.0781C3.28125 30.1719 3.32812 30.3125 3.51562 30.5C3.70312 30.6875 3.98438 30.9688 4.35938 31.3438C4.73438 31.625 5.25 32 5.90625 32.4688C7.6875 33.7812 8.67188 34.4375 8.85938 34.4375C8.95312 34.4375 9 32.9375 9 29.9375C9 26.9375 8.90625 25.4375 8.71875 25.4375C8.625 25.4375 7.73438 26.1875 6.04688 27.6875ZM18.2812 29.6562C18.4688 29.4688 24.0469 29.375 35.0156 29.375C45.7969 29.375 51.3281 29.5625 51.6094 29.9375C51.8906 30.3125 51.8906 30.6875 51.6094 31.0625C51.3281 31.4375 45.7969 31.625 35.0156 31.625C24.1406 31.625 18.6094 31.5312 18.4219 31.3438C17.7656 30.7812 17.7188 30.2188 18.2812 29.6562ZM2.25 49.3438V66.0781L11.9531 56.2344C18.3281 49.6719 21.4219 46.2969 21.2344 46.1094C21.1406 46.0156 18.1406 43.9062 12.2344 39.7812C6.32812 35.5625 3.09375 33.2656 2.53125 32.8906C2.4375 32.7969 2.34375 33.7344 2.25 35.7031C2.25 37.6719 2.25 42.2188 2.25 49.3438ZM58.0781 39.2188C52.2656 43.25 49.0781 45.5469 48.5156 46.1094C48.3281 46.2969 51.4219 49.6719 57.7969 56.2344L67.5 66.0781V49.3438V32.75C64.5938 34.7188 61.4531 36.875 58.0781 39.2188ZM31.0781 43.2969C29.2031 43.7656 27.6094 44.5156 26.2969 45.5469C24.9844 46.5781 21.2812 50.1406 15.1875 56.2344L3.79688 67.625H34.875H65.9531L54.5625 56.2344C46.9688 48.6406 42.7031 44.6562 41.7656 44.2812C38.2969 42.875 34.7344 42.5469 31.0781 43.2969Z" fill="#F53B30"/>
</svg>
